<?xml version="1.0" encoding="UTF-8"?>
<svg width="40px" height="55px" viewBox="0 0 40 55" version="1.1" xmlns="http://www.w3.org/2000/svg" xmlns:xlink="http://www.w3.org/1999/xlink">
    <g id="Symbols" stroke="none" stroke-width="1" fill="none" fill-rule="evenodd">
        <g id="footer" transform="translate(-100.000000, -108.000000)" fill="#FFFFFF" fill-rule="nonzero">
            <g id="footer-mark" transform="translate(100.000000, 108.000000)">
                <path d="M38.0050465,31.1211622 C39.5003268,30.1026515 40,28.857805 40,27.7261263 L40,27.160287 C40,25.9154405 39.2511142,24.8969298 38.0050465,24.1047547 C37.0081933,23.4257476 0,0 0,0 L0,4.97938595 C0,6.67690389 0.998099352,7.24274321 2.36752676,8.14808611 C4.23662824,9.3929326 33.1466306,27.6129585 33.1466306,27.6129585 C33.1466306,27.6129585 3.86405407,46.0593201 2.11831412,47.0778308 C0.249213531,48.2095095 0.125852887,48.8885166 0.125852887,50.3596989 L0.125852887,54.9995812 C-0.124606766,55.1127491 36.2617988,32.2528408 38.0050465,31.1211622" id="Fill-18"></path>
                <path d="M0,16.6241035 L0,19.9122092 C0,19.9122092 11.2325579,26.9268348 13.4302324,28.2420771 C15.2616275,29.3381123 16.8488372,29.2285087 18.6802324,28.02287 C19.9011628,27.2556453 21,26.5980242 21,26.5980242 C21,26.5980242 4.63953525,16.4048965 2.93023238,15.4184647 C1.58720887,14.5416365 0,15.0896541 0,16.6241035" id="Fill-21"></path>
            </g>
        </g>
    </g>
</svg>
