<svg width="128" height="128" viewBox="0 0 128 128" fill="none" xmlns="http://www.w3.org/2000/svg">
<path d="M84.8801 31H44.4131L11.3037 64.1094L64.6466 117.452L117.989 64.1094L84.8801 31Z" fill="#E3EBFC" stroke="#356AE6" stroke-width="2"/>
<path d="M83.0412 64.1098H44.4136L58.8629 31H69.7886L83.0412 64.1098Z" fill="#FAFBFF"/>
<path d="M11.3042 64.1098H44.4136M117.07 64.1098H83.0412M44.4136 64.1098H83.0412M44.4136 64.1098L58.8629 31H69.7886L83.0412 64.1098" stroke="#356AE6" stroke-width="2"/>
<path d="M64.6471 115.613L44.4136 64.1097H83.0412L64.6471 115.613Z" fill="#FAFBFF" stroke="#356AE6" stroke-width="2"/>
<line x1="34.4399" y1="15" x2="34.4399" y2="24.1743" stroke="#C1D1F7" stroke-width="2"/>
<line x1="17.8809" y1="40.2936" x2="11.0001" y2="40.2936" stroke="#C1D1F7" stroke-width="2"/>
<line x1="108.881" y1="30.2936" x2="102" y2="30.2936" stroke="#C1D1F7" stroke-width="2"/>
<line x1="71.9995" y1="1" x2="71.9995" y2="18" stroke="#C1D1F7" stroke-width="2"/>
<line x1="107.174" y1="99.4403" x2="97.9995" y2="99.4403" stroke="#C1D1F7" stroke-width="2"/>
<line x1="39.1738" y1="19.4404" x2="29.9995" y2="19.4404" stroke="#C1D1F7" stroke-width="2"/>
<line x1="14.5869" y1="43.8807" x2="14.5869" y2="37" stroke="#C1D1F7" stroke-width="2"/>
<line x1="105.587" y1="33.8807" x2="105.587" y2="27" stroke="#C1D1F7" stroke-width="2"/>
<line x1="79.9995" y1="9" x2="63.9995" y2="9" stroke="#C1D1F7" stroke-width="2"/>
<line x1="102.733" y1="104.174" x2="102.733" y2="95" stroke="#C1D1F7" stroke-width="2"/>
</svg>
