<svg width="32" height="32" viewBox="0 0 32 32" fill="none" xmlns="http://www.w3.org/2000/svg">
<mask id="mask0" mask-type="alpha" maskUnits="userSpaceOnUse" x="0" y="0" width="30" height="22">
<rect x="1" y="1" width="28" height="20" rx="1" fill="white" stroke="#356AE6" stroke-width="2"/>
</mask>
<g mask="url(#mask0)">
<rect x="1" y="1" width="28" height="20" rx="1" fill="white" stroke="#356AE6" stroke-width="2"/>
<path d="M14.2758 7.23269L1.31485 21H28.686L15.7322 7.23289C15.3374 6.81332 14.6707 6.81323 14.2758 7.23269Z" fill="white" stroke="#356AE6" stroke-width="2"/>
<path d="M14.3201 12.9882L1.52928 1H28.4717L15.688 12.988C15.3034 13.3486 14.7048 13.3487 14.3201 12.9882Z" fill="#C1D1F7" stroke="#356AE6" stroke-width="2"/>
</g>
<path d="M31 23V31H23C18.5817 31 15 27.4183 15 23C15 18.5817 18.5817 15 23 15C27.4183 15 31 18.5817 31 23Z" fill="white" stroke="#356AE6" stroke-width="2"/>
<rect x="19" y="20" width="8" height="2" fill="#356AE6"/>
<rect x="19" y="24" width="5" height="2" fill="#356AE6"/>
</svg>
