<svg width="128" height="128" viewBox="0 0 128 128" fill="none" xmlns="http://www.w3.org/2000/svg">
<g clip-path="url(#clip0)">
<g clip-path="url(#clip1)">
<path d="M15 79.7L1 71.8V13.7L40.2 36.1L15 79.7Z" fill="#E3EBFC" stroke="#356AE6" stroke-width="2" stroke-miterlimit="10"/>
<path d="M113.1 79.7L127.1 71.8V13.7L87.8999 36.1L113.1 79.7Z" fill="white" stroke="#356AE6" stroke-width="2" stroke-miterlimit="10"/>
<path d="M92.3002 45.5C89.3002 45.2 73.8002 43.6 62.7002 43.5C63.7002 43.9 64.6002 44.4 65.5002 45C70.3002 48.6 79.0002 54.8 85.7002 58.8C86.3002 59.2 86.5002 59.9 86.1002 60.5C85.9002 60.8 85.7002 61.2 85.4002 61.7C83.3002 65.3 78.7002 66.6 75.1002 64.5L63.1002 57.6C62.5002 57.3 61.8002 57.5 61.4002 58C60.1002 59.9 58.7002 61.4 57.1002 62.5L57.0002 63.8L28.7002 80.1C26.7002 81.2 26.1002 83.7 27.2002 85.7C28.3002 87.7 30.8002 88.3 32.8002 87.2L55.8002 73.9L56.8002 75.6L37.9002 86.5C37.0002 87.1 36.3002 88 36.0002 89C35.7002 90.1 35.9002 91.2 36.4002 92.1C36.9002 93 37.8002 93.7 38.9002 94C40.0002 94.3 41.1002 94.1 42.0002 93.6L60.9002 82.7L61.9002 84.4L49.8002 91.4C48.9002 91.9 48.2002 92.8 47.9002 93.9C47.6002 95 47.8002 96.1 48.3002 97C48.8002 97.9 49.7002 98.6 50.8002 98.9C51.9002 99.2 53.0002 99 53.9002 98.5L66.0002 91.5L67.0002 93.2L62.1002 96C60.1002 97.1 59.5002 99.6 60.6002 101.6C61.7002 103.6 64.2002 104.2 66.2002 103.1L74.5002 98.3C74.6002 98.2 88.0002 90.6 92.4002 87.5C102.6 80.4 106.2 72.7 107 70.9L92.3002 45.5Z" fill="#E3EBFC"/>
<g style="mix-blend-mode:multiply">
<path d="M71.4001 100.6C70.9001 100.8 70.3001 100.9 69.8001 100.9C67.4001 100.9 65.5001 99 65.5001 96.6C65.5001 95.2 66.2001 94 67.2001 93.2L66.5001 91.9L66.2001 91.4C65.6001 91.7 65.0001 91.9 64.2001 91.9C61.9001 91.9 60.1001 90.1 60.1001 87.8C60.1001 86.3 60.9001 85 62.1001 84.3L61.4001 83C61.4001 83 61.4001 83 61.4001 82.9V83.9L60.8001 82.7C60.3001 82.9 59.8001 83 59.2001 83C56.9001 83 55.1001 81.2 55.1001 78.9C55.1001 77.5 55.9001 76.2 57.0001 75.5L56.4001 74.3V74.2L56.3001 75.1L55.7001 74C55.1001 74.3 54.5001 74.5 53.9001 74.5C51.6001 74.5 49.8001 72.7 49.8001 70.4C49.8001 68.8 50.7001 67.5 52.0001 66.8L51.0001 65.5C50.7001 65 51.1001 64.9 50.6001 65.1L27.7001 78.4C24.8001 80.1 23.8001 83.8 25.5001 86.7C26.6001 88.6 28.7001 89.7 30.8001 89.7C31.8001 89.7 32.9001 89.4 33.8001 88.9L34.0001 88.8C33.7001 90.3 33.9001 91.8 34.7001 93.1C35.5001 94.5 36.8001 95.5 38.4001 95.9C38.9001 96 39.5001 96.1 40.0001 96.1C41.1001 96.1 42.1001 95.8 43.0001 95.3L45.8001 93.7C45.5001 95.2 45.7001 96.7 46.5001 98C47.3001 99.4 48.6001 100.4 50.2001 100.8C50.7001 100.9 51.3001 101 51.8001 101C52.9001 101 53.9001 100.7 54.8001 100.2L58.1001 98.3C57.8001 99.7 58.0001 101.3 58.8001 102.6C59.9001 104.5 62.0001 105.6 64.1001 105.6C65.1001 105.6 66.2001 105.3 67.1001 104.8L72.0001 102C72.5001 101.7 71.6001 101.1 71.4001 100.6Z" fill="#E3EBFC"/>
</g>
<path d="M26.9998 79.9999C22.5998 74.0999 21.2998 68.6999 21.2998 68.6999L35.3998 44.1999L56.9998 42.5999C59.9998 42.3999 62.9998 43.1999 65.3998 44.9999C70.1998 48.5999 78.8998 54.7999 85.5998 58.7999C86.1998 59.1999 86.3998 59.8999 85.9998 60.4999C85.7998 60.7999 85.5998 61.1999 85.2998 61.6999C83.1998 65.2999 78.5998 66.5999 74.9998 64.4999L62.9998 57.5999C62.3998 57.2999 61.6998 57.4999 61.2998 57.9999C54.1998 68.6999 41.0998 65.2999 41.0998 65.2999" fill="white"/>
<path d="M26.9998 79.9999C22.5998 74.0999 21.2998 68.6999 21.2998 68.6999L35.3998 44.1999L56.9998 42.5999C59.9998 42.3999 62.9998 43.1999 65.3998 44.9999C70.1998 48.5999 78.8998 54.7999 85.5998 58.7999C86.1998 59.1999 86.3998 59.8999 85.9998 60.4999C85.7998 60.7999 85.5998 61.1999 85.2998 61.6999C83.1998 65.2999 78.5998 66.5999 74.9998 64.4999L62.9998 57.5999C62.3998 57.2999 61.6998 57.4999 61.2998 57.9999C54.1998 68.6999 41.0998 65.2999 41.0998 65.2999" stroke="#356AE6" stroke-width="2" stroke-miterlimit="10" stroke-linecap="round"/>
<path d="M57 42.6C68.4 41.9 92.4 44.5 92.9 44.5L108.1 70.8C108.1 70.8 105 79.8 93 88.3C88.4 91.5 75 99.2 75 99.2" stroke="#356AE6" stroke-width="2" stroke-miterlimit="10" stroke-linecap="round"/>
<path d="M56.3001 74.8L33.3001 88C30.9001 89.4 27.8001 88.5999 26.4001 86.0999C25.0001 83.6999 25.8001 80.5999 28.3001 79.1999L56.0001 63.2" stroke="#356AE6" stroke-width="2" stroke-miterlimit="10" stroke-linecap="round"/>
<path d="M61.3998 83.6L42.4998 94.5C40.0998 95.9 36.9998 95.1 35.5998 92.6C34.1998 90.2 34.9998 87.1 37.4998 85.7L56.3998 74.8" stroke="#356AE6" stroke-width="2" stroke-miterlimit="10" stroke-linecap="round"/>
<path d="M66.5002 92.4L54.4002 99.4C52.0002 100.8 48.9002 100 47.5002 97.5C46.1002 95.1 46.9002 92 49.4002 90.6L61.5002 83.6" stroke="#356AE6" stroke-width="2" stroke-miterlimit="10" stroke-linecap="round"/>
<path d="M71.6 101.2L66.7 104C64.3 105.4 61.2 104.6 59.8 102.1C58.4 99.7 59.2 96.6 61.7 95.2L66.6 92.4" stroke="#356AE6" stroke-width="2" stroke-miterlimit="10" stroke-linecap="round"/>
<path d="M79.2002 94.5L79.5002 95.1C80.8002 97.3 80.1002 100.2 77.9002 101.5L77.2002 101.9C75.0002 103.2 72.1002 102.5 70.8002 100.3L70.5002 99.7C69.0002 97.3 69.8002 94.2 72.2002 92.7C74.6002 91.3 77.8002 92.1 79.2002 94.5Z" fill="white" stroke="#356AE6" stroke-width="2" stroke-miterlimit="10" stroke-linecap="round"/>
<path d="M102.8 74.7L104.5 77.5C105.8 79.7 105.1 82.6 102.9 83.9L102.2 84.3C99.9998 85.6 97.0998 84.9 95.7998 82.7L94.0998 80C92.5998 77.6 93.3998 74.5 95.7998 73C98.1998 71.6 101.3 72.3 102.8 74.7Z" fill="white" stroke="#356AE6" stroke-width="2" stroke-miterlimit="10" stroke-linecap="round"/>
<path d="M85 84.5L88.9 91C90.2 93.2 89.5 96.1 87.3 97.4L86.6 97.8C84.4 99.1 81.5 98.4 80.2 96.2L76.3 89.7C74.8 87.3 75.6 84.2 78 82.7C80.4 81.3 83.5 82.1 85 84.5Z" fill="white" stroke="#356AE6" stroke-width="2" stroke-miterlimit="10" stroke-linecap="round"/>
<path d="M91.6001 75.8L97.6001 85.7C98.9001 87.9 98.2001 90.8 96.0001 92.1L95.3001 92.5C93.1001 93.8 90.2001 93.1 88.9001 90.9L82.9001 81C81.4001 78.6 82.2001 75.5 84.6001 74C87.0001 72.6 90.1001 73.4 91.6001 75.8Z" fill="white" stroke="#356AE6" stroke-width="2" stroke-miterlimit="10" stroke-linecap="round"/>
<path d="M64.1001 35.2V6" stroke="#E3EBFC" stroke-width="2" stroke-miterlimit="10" stroke-linecap="round"/>
<path d="M52.7002 35.2L41.7002 16.1" stroke="#E3EBFC" stroke-width="2" stroke-miterlimit="10" stroke-linecap="round"/>
<path d="M75.5 35.2L86.5 16.1" stroke="#E3EBFC" stroke-width="2" stroke-miterlimit="10" stroke-linecap="round"/>
<path d="M36.4999 101.8L22.8999 121.7" stroke="#E3EBFC" stroke-width="2" stroke-miterlimit="10" stroke-linecap="round"/>
<path d="M26.7002 95.1L11.7002 102.3" stroke="#E3EBFC" stroke-width="2" stroke-miterlimit="10" stroke-linecap="round"/>
<path d="M47.3998 106.3L46.2998 121" stroke="#E3EBFC" stroke-width="2" stroke-miterlimit="10" stroke-linecap="round"/>
<path d="M93.5 101.8L107.1 121.7" stroke="#E3EBFC" stroke-width="2" stroke-miterlimit="10" stroke-linecap="round"/>
<path d="M103.3 95.1L118.3 102.3" stroke="#E3EBFC" stroke-width="2" stroke-miterlimit="10" stroke-linecap="round"/>
<path d="M82.6001 106.3L83.7001 121" stroke="#E3EBFC" stroke-width="2" stroke-miterlimit="10" stroke-linecap="round"/>
</g>
</g>
<defs>
<clipPath id="clip0">
<path d="M0 0H128V128H0V0Z" fill="white"/>
</clipPath>
<clipPath id="clip1">
<rect y="5" width="128.1" height="117.7" fill="white"/>
</clipPath>
</defs>
</svg>
