<svg xmlns="http://www.w3.org/2000/svg" xmlns:xlink="http://www.w3.org/1999/xlink" width="639" height="557" viewBox="0 0 639 557">
    <defs>
        <filter id="a" width="165.1%" height="165.1%" x="-32.6%" y="-23.3%" filterUnits="objectBoundingBox">
            <feOffset dy="12" in="SourceAlpha" result="shadowOffsetOuter1"/>
            <feGaussianBlur in="shadowOffsetOuter1" result="shadowBlurOuter1" stdDeviation="12"/>
            <feColorMatrix in="shadowBlurOuter1" result="shadowMatrixOuter1" values="0 0 0 0 0.12 0 0 0 0 0.129333333 0 0 0 0 0.16 0 0 0 1 0"/>
            <feMerge>
                <feMergeNode in="shadowMatrixOuter1"/>
                <feMergeNode in="SourceGraphic"/>
            </feMerge>
        </filter>
        <filter id="b" width="165.1%" height="165.1%" x="-32.6%" y="-23.3%" filterUnits="objectBoundingBox">
            <feOffset dy="12" in="SourceAlpha" result="shadowOffsetOuter1"/>
            <feGaussianBlur in="shadowOffsetOuter1" result="shadowBlurOuter1" stdDeviation="12"/>
            <feColorMatrix in="shadowBlurOuter1" result="shadowMatrixOuter1" values="0 0 0 0 0.12 0 0 0 0 0.129333333 0 0 0 0 0.16 0 0 0 1 0"/>
            <feMerge>
                <feMergeNode in="shadowMatrixOuter1"/>
                <feMergeNode in="SourceGraphic"/>
            </feMerge>
        </filter>
        <filter id="c" width="205%" height="205%" x="-52.5%" y="-37.5%" filterUnits="objectBoundingBox">
            <feOffset dy="12" in="SourceAlpha" result="shadowOffsetOuter1"/>
            <feGaussianBlur in="shadowOffsetOuter1" result="shadowBlurOuter1" stdDeviation="12"/>
            <feColorMatrix in="shadowBlurOuter1" result="shadowMatrixOuter1" values="0 0 0 0 0.12 0 0 0 0 0.129333333 0 0 0 0 0.16 0 0 0 1 0"/>
            <feMerge>
                <feMergeNode in="shadowMatrixOuter1"/>
                <feMergeNode in="SourceGraphic"/>
            </feMerge>
        </filter>
        <filter id="d" width="205%" height="205%" x="-52.5%" y="-37.5%" filterUnits="objectBoundingBox">
            <feOffset dy="12" in="SourceAlpha" result="shadowOffsetOuter1"/>
            <feGaussianBlur in="shadowOffsetOuter1" result="shadowBlurOuter1" stdDeviation="12"/>
            <feColorMatrix in="shadowBlurOuter1" result="shadowMatrixOuter1" values="0 0 0 0 0.12 0 0 0 0 0.129333333 0 0 0 0 0.16 0 0 0 1 0"/>
            <feMerge>
                <feMergeNode in="shadowMatrixOuter1"/>
                <feMergeNode in="SourceGraphic"/>
            </feMerge>
        </filter>
        <filter id="e" width="165.1%" height="165.1%" x="-32.6%" y="-23.3%" filterUnits="objectBoundingBox">
            <feOffset dy="12" in="SourceAlpha" result="shadowOffsetOuter1"/>
            <feGaussianBlur in="shadowOffsetOuter1" result="shadowBlurOuter1" stdDeviation="12"/>
            <feColorMatrix in="shadowBlurOuter1" result="shadowMatrixOuter1" values="0 0 0 0 0.12 0 0 0 0 0.129333333 0 0 0 0 0.16 0 0 0 1 0"/>
            <feMerge>
                <feMergeNode in="shadowMatrixOuter1"/>
                <feMergeNode in="SourceGraphic"/>
            </feMerge>
        </filter>
        <filter id="f" width="154.2%" height="154.2%" x="-27.1%" y="-19.4%" filterUnits="objectBoundingBox">
            <feOffset dy="12" in="SourceAlpha" result="shadowOffsetOuter1"/>
            <feGaussianBlur in="shadowOffsetOuter1" result="shadowBlurOuter1" stdDeviation="12"/>
            <feColorMatrix in="shadowBlurOuter1" result="shadowMatrixOuter1" values="0 0 0 0 0.12 0 0 0 0 0.129333333 0 0 0 0 0.16 0 0 0 1 0"/>
            <feMerge>
                <feMergeNode in="shadowMatrixOuter1"/>
                <feMergeNode in="SourceGraphic"/>
            </feMerge>
        </filter>
        <filter id="g" width="154.9%" height="154.9%" x="-27.5%" y="-19.6%" filterUnits="objectBoundingBox">
            <feOffset dy="12" in="SourceAlpha" result="shadowOffsetOuter1"/>
            <feGaussianBlur in="shadowOffsetOuter1" result="shadowBlurOuter1" stdDeviation="12"/>
            <feColorMatrix in="shadowBlurOuter1" result="shadowMatrixOuter1" values="0 0 0 0 0.12 0 0 0 0 0.129333333 0 0 0 0 0.16 0 0 0 1 0"/>
            <feMerge>
                <feMergeNode in="shadowMatrixOuter1"/>
                <feMergeNode in="SourceGraphic"/>
            </feMerge>
        </filter>
        <filter id="h" width="164.4%" height="164.4%" x="-32.2%" y="-26.3%" filterUnits="objectBoundingBox">
            <feOffset dy="12" in="SourceAlpha" result="shadowOffsetOuter1"/>
            <feGaussianBlur in="shadowOffsetOuter1" result="shadowBlurOuter1" stdDeviation="7"/>
            <feColorMatrix in="shadowBlurOuter1" result="shadowMatrixOuter1" values="0 0 0 0 0.24 0 0 0 0 0.258666667 0 0 0 0 0.32 0 0 0 0.217362998 0"/>
            <feMerge>
                <feMergeNode in="shadowMatrixOuter1"/>
                <feMergeNode in="SourceGraphic"/>
            </feMerge>
        </filter>
        <circle id="j" cx="102.5" cy="102.5" r="86.5"/>
        <filter id="i" width="167.6%" height="167.6%" x="-33.8%" y="-33.8%" filterUnits="objectBoundingBox">
            <feMorphology in="SourceAlpha" operator="dilate" radius="2.5" result="shadowSpreadOuter1"/>
            <feOffset in="shadowSpreadOuter1" result="shadowOffsetOuter1"/>
            <feGaussianBlur in="shadowOffsetOuter1" result="shadowBlurOuter1" stdDeviation="17"/>
            <feColorMatrix in="shadowBlurOuter1" values="0 0 0 0 0.207843137 0 0 0 0 0.415686275 0 0 0 0 0.901960784 0 0 0 0.585286458 0"/>
        </filter>
        <circle id="l" cx="102.5" cy="102.5" r="102.5"/>
        <filter id="k" width="157.1%" height="157.1%" x="-28.5%" y="-28.5%" filterUnits="objectBoundingBox">
            <feMorphology in="SourceAlpha" operator="dilate" radius="2.5" result="shadowSpreadOuter1"/>
            <feOffset in="shadowSpreadOuter1" result="shadowOffsetOuter1"/>
            <feGaussianBlur in="shadowOffsetOuter1" result="shadowBlurOuter1" stdDeviation="17"/>
            <feColorMatrix in="shadowBlurOuter1" values="0 0 0 0 0.207843137 0 0 0 0 0.415686275 0 0 0 0 0.901960784 0 0 0 0.585286458 0"/>
        </filter>
    </defs>
    <g fill="none" fill-rule="evenodd" transform="translate(24 -1)">
        <g filter="url(#a)" transform="translate(88 29)">
            <circle cx="64.5" cy="64.5" r="64.5" fill="#FFF"/>
            <path fill="#21759B" fill-rule="nonzero" d="M64.964 26.914c-20.974 0-38.05 17.061-38.05 38.05 0 20.974 17.076 38.05 38.05 38.05 20.974 0 38.05-17.076 38.05-38.05 0-20.989-17.076-38.05-38.05-38.05zm-33.41 38.283c0-5.04 1.07-9.831 2.992-14.154l16.497 45.475a34.846 34.846 0 0 1-19.489-31.32zm33.017 33.177c-3.412 0-6.7-.481-9.816-1.37L65.18 67.749 75.85 96.011c.078.166.156.316.25.467a35.89 35.89 0 0 1-11.53 1.896zm6.026-48.796c2.068-.107 3.934-.32 3.934-.32 1.851-.213 1.635-2.905-.216-2.798 0 0-5.569.425-9.163.425-3.378 0-9.055-.425-9.055-.425-1.851-.107-2.067 2.692-.216 2.798 0 0 1.758.213 3.61.32l5.352 14.48-7.528 22.251L44.79 49.578c2.067-.107 3.934-.32 3.934-.32 1.851-.213 1.635-2.905-.216-2.798 0 0-5.569.425-9.163.425-.648 0-1.404-.015-2.222-.045 6.155-9.202 16.722-15.286 28.74-15.286a34.603 34.603 0 0 1 23.232 8.898c-.155-.016-.294-.03-.448-.03-3.378 0-5.77 2.904-5.77 6.022 0 2.799 1.636 5.157 3.38 7.955 1.31 2.251 2.838 5.156 2.838 9.354 0 2.905-1.127 6.267-2.623 10.966L83.046 86.02 70.597 49.578zM81.67 94.662l10.258-30.486c1.913-4.924 2.56-8.857 2.56-12.371 0-1.27-.075-2.447-.225-3.546 2.62 4.924 4.112 10.56 4.112 16.567 0 12.743-6.718 23.86-16.705 29.836z"/>
        </g>
        <circle cx="64.5" cy="64.5" r="64.5" fill="#FFF" filter="url(#b)" transform="translate(378 393)"/>
        <g filter="url(#c)" transform="translate(301 13)">
            <circle cx="40" cy="40" r="40" fill="#FFF"/>
            <path fill="#1DA1F2" fill-rule="nonzero" d="M53.398 33.001c.02.306.02.61.02.916 0 9.31-6.714 20.036-18.985 20.036-3.78 0-7.293-1.155-10.247-3.16.537.065 1.054.086 1.611.086 3.12 0 5.991-1.112 8.285-3.008-2.934-.066-5.392-2.093-6.24-4.884.414.065.827.109 1.26.109.6 0 1.2-.087 1.757-.24-3.058-.654-5.35-3.488-5.35-6.911v-.087c.887.523 1.92.85 3.015.893-1.797-1.264-2.975-3.423-2.975-5.864 0-1.309.331-2.508.91-3.554 3.284 4.273 8.222 7.064 13.758 7.369a8.373 8.373 0 0 1-.165-1.613c0-3.881 2.975-7.042 6.673-7.042 1.921 0 3.656.85 4.875 2.223a12.726 12.726 0 0 0 4.235-1.7 6.968 6.968 0 0 1-2.933 3.88c1.343-.152 2.644-.545 3.842-1.09a14.803 14.803 0 0 1-3.346 3.641z"/>
        </g>
        <g filter="url(#d)" transform="translate(164 393)">
            <circle cx="40" cy="40" r="40" fill="#FFF"/>
            <path fill="#3B5998" fill-rule="nonzero" d="M25.767 24.186c-.79 0-1.581.79-1.581 1.581v28.07c0 1.186.79 1.977 1.581 1.977h15.024V43.558h-3.954v-4.744h3.954v-3.558c0-3.954 2.372-6.326 6.325-6.326h3.558v4.35h-2.372c-1.976 0-2.372.79-2.372 2.371v3.163h4.744l-.395 4.744h-3.953v12.256h7.907c.79 0 1.581-.79 1.581-1.581V25.767c0-.79-.79-1.581-1.581-1.581H25.767z"/>
        </g>
        <g filter="url(#e)" transform="translate(462 212)">
            <circle cx="64.5" cy="64.5" r="64.5" fill="#FFF"/>
            <path fill="#009CDE" fill-rule="nonzero" d="M84.85 54.972c-.222-.16-.309-.22-.37.16-.247 1.4-.629 2.763-1.085 4.126-4.92 13.973-18.555 12.757-25.212 12.757-.752 0-1.245.405-1.344 1.154-2.786 17.24-3.34 20.837-3.34 20.837-.124.872.43 1.584 1.306 1.584h7.829c1.06 0 1.935-.774 2.145-1.83.086-.663-.136.75 1.775-11.21.567-2.701 1.763-2.419 3.612-2.419 8.754 0 15.584-3.536 17.618-13.789.801-4.273.567-8.767-2.934-11.37z"/>
            <path fill="#003087" d="M54.558 72.641c-.431 2.358-2.145 13.347-2.65 16.454-.037.22-.124.307-.37.307H42.34c-.937 0-1.615-.81-1.492-1.707l7.225-45.664c.184-1.179 1.245-2.075 2.465-2.075 18.777 0 20.355-.455 25.15 1.4 7.41 2.86 8.088 9.76 5.425 17.226-2.65 7.687-8.938 10.99-17.272 11.088-5.35.086-8.569-.86-9.284 2.971z"/>
        </g>
        <g filter="url(#f)" transform="translate(429 13)">
            <circle cx="77.5" cy="77.5" r="77.5" fill="#FFF"/>
            <g fill="#03363D" fill-rule="nonzero">
                <path d="M75.18 64.97v39.91H42.695zM75.18 51.048c0 9.227-7.272 16.706-16.243 16.706-8.97 0-16.242-7.48-16.242-16.706H75.18zM79.82 104.88c0-9.227 7.272-16.706 16.243-16.706 8.97 0 16.242 7.48 16.242 16.706H79.82zM79.82 90.958v-39.91h32.485z"/>
            </g>
        </g>
        <g filter="url(#g)" transform="translate(0 212)">
            <circle cx="76.5" cy="76.5" r="76.5" fill="#FFF"/>
            <path fill="#8CB849" d="M69.979 28.13c.53 0 1.064.18 1.575.532-3.935 1.851-8.153 6.516-9.935 15.828l-7.5 2.323c2.086-7.103 7.04-18.682 15.86-18.682zm3.648 3.453c.755 1.892 1.246 4.608 1.246 8.272 0 .187-.002.359-.003.532l-9.49 2.939c1.828-7.052 5.253-10.458 8.247-11.743zm9.058 6.386l-4.594 1.422c.001-.324.003-.643.003-.99 0-3.037-.422-5.482-1.098-7.42 2.716.341 4.525 3.431 5.689 6.988zm22.052 5.405c-.066-.479-.485-.744-.832-.773-.345-.029-7.663-.571-7.663-.571s-5.083-5.045-5.64-5.603c-.559-.558-1.648-.39-2.071-.265l-2.845.878c-1.698-4.885-4.694-9.374-9.965-9.374-.145 0-.295.007-.445.014-1.499-1.982-3.356-2.843-4.96-2.843-12.278 0-18.145 15.35-19.984 23.15-4.771 1.478-8.16 2.529-8.594 2.665-2.663.836-2.747.92-3.097 3.429-.263 1.9-7.232 55.79-7.232 55.79l54.3 10.173 29.421-6.365s-10.328-69.826-10.393-70.305z"/>
            <path fill="#5A873E" d="M103.905 42.601c-.345-.029-7.663-.571-7.663-.571s-5.083-5.045-5.64-5.603c-.209-.209-.49-.315-.785-.361l-4.106 83.978 29.419-6.365s-10.328-69.826-10.393-70.305c-.066-.479-.485-.744-.832-.773"/>
            <path fill="#FFFFFE" d="M75.721 58.858L72.094 69.65s-3.179-1.698-7.075-1.698c-5.712 0-6 3.585-6 4.489 0 4.928 12.848 6.816 12.848 18.36 0 9.083-5.76 14.932-13.528 14.932-9.321 0-14.088-5.801-14.088-5.801l2.496-8.246s4.9 4.207 9.034 4.207c2.702 0 3.8-2.127 3.8-3.68 0-6.43-10.54-6.718-10.54-17.281 0-8.892 6.382-17.496 19.264-17.496 4.964 0 7.416 1.422 7.416 1.422"/>
        </g>
        <path fill="#FF4A00" fill-rule="nonzero" d="M450.625 457.514a19.442 19.442 0 0 1-1.248 6.862 19.432 19.432 0 0 1-6.863 1.25h-.028a19.433 19.433 0 0 1-6.861-1.249 19.44 19.44 0 0 1-1.25-6.862v-.028a19.466 19.466 0 0 1 1.248-6.862 19.45 19.45 0 0 1 6.863-1.25h.028c2.416.002 4.73.445 6.863 1.25a19.453 19.453 0 0 1 1.248 6.862v.028zm23.923-5.43h-18.971l13.414-13.415a32.672 32.672 0 0 0-7.66-7.661l-13.414 13.414v-18.97a32.7 32.7 0 0 0-5.4-.452h-.035a32.7 32.7 0 0 0-5.399.452v18.971L423.67 431.01a32.653 32.653 0 0 0-4.15 3.51l-.004.004a32.664 32.664 0 0 0-3.506 4.146l13.415 13.414h-18.972s-.451 3.564-.452 5.405v.024c0 1.81.152 3.619.452 5.405h18.971l-13.414 13.415a32.685 32.685 0 0 0 7.66 7.66l13.414-13.414v18.97c1.783.3 3.587.45 5.394.452h.047a32.734 32.734 0 0 0 5.393-.452v-18.971l13.414 13.414a32.669 32.669 0 0 0 4.149-3.508l.003-.003a32.692 32.692 0 0 0 3.508-4.148l-13.414-13.415h18.971c.3-1.782.45-3.586.452-5.393v-.047a32.734 32.734 0 0 0-.452-5.393z"/>
        <path stroke="#FFF" stroke-width="2" d="M298 203v-34a8 8 0 0 0-8-8h-39a8 8 0 0 1-8-8v-51a8 8 0 0 0-8-8h-25M321 187v-50.066a8 8 0 0 0-8-8h-36a8 8 0 0 1-8-8V65a8 8 0 0 1 8-8h29.43M374 259h45a8 8 0 0 0 8-8v-56a8 8 0 0 1 8-8h65a8 8 0 0 0 8-8v-23M374 270h34.046a8 8 0 0 1 8 8v84a8 8 0 0 0 8 8H517a8 8 0 0 0 8-8v-29.11M288 327v53.62a8 8 0 0 1-8 8h-6.372a8 8 0 0 0-8 8V425a8 8 0 0 1-8 8H235" opacity=".15"/>
        <g stroke="#FFF" stroke-width="2" transform="translate(74 303)">
            <path d="M0 51v36a8 8 0 0 0 8 8h57a8 8 0 0 0 8-8V74a8 8 0 0 1 8-8h37a8 8 0 0 0 8-8V8a8 8 0 0 1 8-8h29" opacity=".15"/>
            <circle cx="23" cy="95" r="3"/>
            <circle cx="126" cy="36" r="3"/>
        </g>
        <path stroke="#FFF" stroke-width="2" d="M318 327v83.225a8 8 0 0 0 8 8h7.188a8 8 0 0 1 8 8V450a8 8 0 0 0 8 8H381M234 267h-55a8 8 0 0 1-8-8v-64a8 8 0 0 0-8-8H85a8 8 0 0 0-8 8v32" opacity=".15"/>
        <g filter="url(#h)" transform="translate(198 154)">
            <use fill="#000" filter="url(#i)" xlink:href="#j"/>
            <use fill="#356AE6" xlink:href="#j"/>
            <g opacity=".1">
                <use fill="#000" filter="url(#k)" xlink:href="#l"/>
                <use fill="#356AE6" xlink:href="#l"/>
            </g>
            <g fill="#FFF" fill-rule="nonzero">
                <path d="M134.6 108.905c2.25-1.555 2.899-3.605 2.899-5.561v-.86c0-2.038-1.12-3.629-2.899-4.901-1.508-1.084-55.937-38.914-55.937-38.914v8.047c0 2.792 1.52 3.723 3.416 5.077 2.745 1.933 45.24 31.445 45.24 31.445s-43.06 29.748-45.64 31.468c-2.675 1.767-3.016 2.992-3.016 5.337v7.528s53.499-36.982 55.937-38.666z"/>
                <path d="M78.663 85.342v5.537s16.8 11.746 20.063 13.89c2.769 1.85 5.113 1.709 7.953-.388a157.861 157.861 0 0 1 3.404-2.44S85.602 84.954 83.022 83.246c-2.074-1.367-4.36-.4-4.36 2.097z"/>
            </g>
        </g>
        <circle cx="143" cy="187" r="3" stroke="#FFF" stroke-width="2"/>
        <circle cx="243" cy="130" r="3" stroke="#FFF" stroke-width="2"/>
        <circle cx="269" cy="75" r="3" stroke="#FFF" stroke-width="2"/>
        <circle cx="482" cy="187" r="3" stroke="#FFF" stroke-width="2"/>
        <circle cx="416" cy="312" r="3" stroke="#FFF" stroke-width="2"/>
        <circle cx="341" cy="441" r="3" stroke="#FFF" stroke-width="2"/>
        <circle cx="276" cy="389" r="3" stroke="#FFF" stroke-width="2"/>
    </g>
</svg>
