<svg width="128" height="128" viewBox="0 0 128 128" fill="none" xmlns="http://www.w3.org/2000/svg">
<mask id="path-2-outside-1" maskUnits="userSpaceOnUse" x="6" y="2" width="117" height="125" fill="black">
<rect fill="white" x="6" y="2" width="117" height="125"/>
<path fill-rule="evenodd" clip-rule="evenodd" d="M119.975 22.8316C115.846 23.777 111.555 24.2755 107.151 24.2755C90.1707 24.2755 74.8635 16.8653 64.0852 5C53.3069 16.8654 37.9996 24.2757 21.0196 24.2757C16.6157 24.2757 12.3244 23.7772 8.19547 22.8319C8.06579 25.0229 8 27.2318 8 29.4566C8 70.8577 30.7833 106.753 64.0854 124.453C97.3874 106.753 120.171 70.8577 120.171 29.4566C120.171 27.2317 120.105 25.0227 119.975 22.8316Z"/>
</mask>
<path fill-rule="evenodd" clip-rule="evenodd" d="M119.975 22.8316C115.846 23.777 111.555 24.2755 107.151 24.2755C90.1707 24.2755 74.8635 16.8653 64.0852 5C53.3069 16.8654 37.9996 24.2757 21.0196 24.2757C16.6157 24.2757 12.3244 23.7772 8.19547 22.8319C8.06579 25.0229 8 27.2318 8 29.4566C8 70.8577 30.7833 106.753 64.0854 124.453C97.3874 106.753 120.171 70.8577 120.171 29.4566C120.171 27.2317 120.105 25.0227 119.975 22.8316Z" fill="white"/>
<path d="M119.975 22.8316L121.972 22.7134L121.832 20.3547L119.529 20.882L119.975 22.8316ZM64.0852 5L65.5656 3.65522L64.0852 2.02552L62.6048 3.65523L64.0852 5ZM8.19547 22.8319L8.64183 20.8823L6.33858 20.355L6.19897 22.7137L8.19547 22.8319ZM64.0854 124.453L63.1467 126.219L64.0854 126.718L65.024 126.219L64.0854 124.453ZM107.151 26.2755C111.706 26.2755 116.147 25.7598 120.422 24.7811L119.529 20.882C115.545 21.7942 111.403 22.2755 107.151 22.2755V26.2755ZM62.6048 6.34478C73.7381 18.6009 89.5721 26.2755 107.151 26.2755V22.2755C90.7693 22.2755 75.9889 15.1297 65.5656 3.65522L62.6048 6.34478ZM21.0196 26.2757C38.5982 26.2757 54.4323 18.601 65.5656 6.34477L62.6048 3.65523C52.1815 15.1298 37.401 22.2757 21.0196 22.2757V26.2757ZM7.74912 24.7815C12.0233 25.76 16.4643 26.2757 21.0196 26.2757V22.2757C16.7672 22.2757 12.6256 21.7944 8.64183 20.8823L7.74912 24.7815ZM6.19897 22.7137C6.06696 24.9441 6 27.1924 6 29.4566H10C10 27.2713 10.0646 25.1018 10.192 22.9501L6.19897 22.7137ZM6 29.4566C6 71.6009 29.1947 108.174 63.1467 126.219L65.024 122.687C32.3719 105.332 10 70.1144 10 29.4566H6ZM65.024 126.219C98.976 108.174 122.171 71.6009 122.171 29.4566H118.171C118.171 70.1144 95.7988 105.332 63.1467 122.687L65.024 126.219ZM122.171 29.4566C122.171 27.1923 122.104 24.9439 121.972 22.7134L117.979 22.9498C118.106 25.1016 118.171 27.2712 118.171 29.4566H122.171Z" fill="#C1D1F7" mask="url(#path-2-outside-1)"/>
<path fill-rule="evenodd" clip-rule="evenodd" d="M64.085 5.00024C53.3067 16.8655 37.9995 24.2757 21.0196 24.2757C16.6157 24.2757 12.3244 23.7772 8.19547 22.8319C8.06579 25.0229 8 27.2318 8 29.4566C8 70.8575 30.7831 106.753 64.085 124.453V5.00024Z" fill="#E3EBFC"/>
<g clip-path="url(#clip0)">
<path d="M40.6577 60.5031H7.89062V108.023H40.6577V60.5031Z" fill="white" stroke="#356AE6" stroke-width="2" stroke-miterlimit="10" stroke-linecap="round"/>
<path d="M24.2739 102.782C26.3393 102.782 28.0136 101.112 28.0136 99.0519C28.0136 96.9916 26.3393 95.3214 24.2739 95.3214C22.2085 95.3214 20.5342 96.9916 20.5342 99.0519C20.5342 101.112 22.2085 102.782 24.2739 102.782Z" fill="#E3EBFC" stroke="#356AE6" stroke-width="2" stroke-miterlimit="10" stroke-linecap="round" stroke-linejoin="round"/>
<path d="M40.6577 64.9442C40.6577 64.9442 44.4865 65.5659 47.5139 60.2366C54.9933 47.2685 61.1372 47.4462 62.4728 40.9621C63.3632 36.521 62.1166 27.2835 61.4043 23.2865C61.2262 22.2206 62.0276 21.1547 63.0961 20.9771C67.9043 20.4442 72.5344 23.02 74.4043 27.3723C76.2741 31.7246 76.5413 35.2775 76.7194 38.9192C76.9865 44.6038 75.918 50.1108 75.0276 53.3973C74.5824 54.9961 75.8289 56.506 77.4317 56.506H103.966C107.973 56.506 110.911 60.2366 109.932 64.1448C109.219 66.8094 106.815 68.7635 103.966 68.7635H100.849C104.856 68.7635 107.795 72.4941 106.815 76.4023C106.103 79.0669 103.699 81.021 100.849 81.021H97.7331C101.74 81.021 104.678 84.7516 103.699 88.6597C102.986 91.3244 100.582 93.2785 97.7331 93.2785H94.6166C98.6235 93.2785 101.562 97.009 100.582 100.917C99.87 103.493 97.644 105.358 94.9728 105.536C81.9728 106.069 69.9522 108.556 57.3974 106.424C49.8289 105.092 46.8906 102.161 40.8358 100.562V64.9442H40.6577Z" fill="#E3EBFC" stroke="#356AE6" stroke-width="2" stroke-miterlimit="10" stroke-linecap="round" stroke-linejoin="round"/>
<path d="M107.972 57.6607C106.637 56.3284 104.767 55.6178 102.808 55.6178L88.5615 57.3942C90.7875 57.3942 93.7259 57.5719 95.5067 59.2595C97.1095 60.7695 97.6437 62.2795 97.1095 64.3224C96.6643 66.0988 95.5067 67.6088 93.993 68.5859C93.993 68.5859 93.993 68.5859 93.904 68.5859C92.9245 69.2076 92.6574 70.3623 93.2807 71.3394L93.3697 71.4282C94.2602 72.9382 94.4382 74.8034 93.993 76.4911C93.5478 78.3563 92.3012 79.8663 90.7875 80.7545C89.8081 81.2875 89.4519 82.531 90.1643 83.508C90.2533 83.6857 90.3423 83.7745 90.4314 83.9521C91.1437 85.4621 91.3218 87.1497 90.8766 88.7485C90.4314 90.525 89.2738 92.035 87.7601 93.012C86.7807 93.6338 86.4245 94.8773 87.0478 95.8543C87.2259 96.032 87.3149 96.2096 87.3149 96.2984C88.0273 97.7196 88.1163 99.4072 87.7601 100.917C86.9588 103.937 83.7533 105.092 80.4588 105.447C76.541 105.802 73.4245 106.691 69.6848 107.046C66.8355 107.312 64.0752 107.579 61.3149 107.668C63.2738 107.845 65.2327 107.934 67.1917 107.934C72.178 107.934 77.1643 107.49 82.3286 107.046C86.0684 106.691 89.9862 106.335 93.993 106.158C97.0204 106.069 99.6917 103.848 100.493 100.828C101.027 98.6966 100.582 96.4761 99.2464 94.7885C98.9793 94.4332 98.6232 94.0779 98.178 93.7226C100.76 93.1897 102.897 91.2356 103.609 88.5709C104.144 86.4392 103.699 84.2186 102.363 82.531C102.096 82.1757 101.74 81.8204 101.294 81.4651C103.877 80.9322 106.014 78.9781 106.726 76.3134C107.26 74.1817 106.815 71.9611 105.479 70.2735C105.212 69.9182 104.856 69.5629 104.411 69.2076C106.993 68.6747 109.13 66.7206 109.842 64.0559C110.466 61.9242 109.842 59.4372 107.972 57.6607Z" fill="#C1D1F7"/>
<path d="M76.7192 57.3943H71.911C69.685 57.3943 67.9932 55.3513 68.4384 53.1308C69.3288 48.6897 70.5754 41.8503 70.5754 38.8304C70.5754 31.3693 66.3014 21.7765 63.7192 21.7765L69.9521 21.8653L74.4932 27.3723L77.1645 39.6298L75.4727 50.5549V55.4402L76.7192 57.3943Z" fill="#C1D1F7"/>
<path d="M40.6577 64.9442C40.6577 64.9442 44.4865 65.5659 47.5139 60.2366C54.9933 47.2685 61.1372 47.4462 62.4728 40.9621C63.3632 36.521 62.1166 27.2835 61.4043 23.2865C61.2262 22.2206 62.0276 21.1547 63.0961 20.9771C67.9043 20.4442 72.5344 23.02 74.4043 27.3723C76.2741 31.7246 76.5413 35.2775 76.7194 38.9192C76.9865 44.6038 75.918 50.1108 75.0276 53.3973C74.5824 54.9961 75.8289 56.506 77.4317 56.506H103.966C107.973 56.506 110.911 60.2366 109.932 64.1448C109.219 66.8094 106.815 68.7635 103.966 68.7635H100.849C104.856 68.7635 107.795 72.4941 106.815 76.4023C106.103 79.0669 103.699 81.021 100.849 81.021H97.7331C101.74 81.021 104.678 84.7516 103.699 88.6597C102.986 91.3244 100.582 93.2785 97.7331 93.2785H94.6166C98.6235 93.2785 101.562 97.009 100.582 100.917C99.87 103.493 97.644 105.358 94.9728 105.536C81.9728 106.069 69.9522 108.556 57.3974 106.424C49.8289 105.092 46.8906 102.161 40.8358 100.562V64.9442H40.6577Z" stroke="#356AE6" stroke-width="2" stroke-miterlimit="10" stroke-linecap="round" stroke-linejoin="round"/>
</g>
<defs>
<clipPath id="clip0">
<rect x="7" y="20" width="104" height="89" fill="white"/>
</clipPath>
</defs>
</svg>
