<?xml version="1.0" encoding="UTF-8"?>
<svg width="32px" height="32px" viewBox="0 0 32 32" version="1.1" xmlns="http://www.w3.org/2000/svg" xmlns:xlink="http://www.w3.org/1999/xlink">
    <!-- Generator: sketchtool 49.3 (51167) - http://www.bohemiancoding.com/sketch -->
    <title>D75EB546-C4AB-4513-948B-00C9B3F6D4F0</title>
    <desc>Created with sketchtool.</desc>
    <defs></defs>
    <g id="Page-1" stroke="none" stroke-width="1" fill="none" fill-rule="evenodd">
        <g id="HomepageV3" transform="translate(-99.000000, -3706.000000)">
            <g id="CRM" transform="translate(0.000000, 3452.000000)">
                <g id="Group-55" transform="translate(100.000000, 255.000000)">
                    <g id="contact-cards">
                        <path d="M30,15.0454102 L30,20.1907933 C30,21.5280714 29.8607616,22.0130008 29.5993009,22.5018896 C29.3378403,22.9907785 28.9541574,23.3744614 28.4652686,23.635922 C27.9763797,23.8973827 27.4914503,24.0366211 26.1541722,24.0366211 L25,24.0366211 C25,22.9320516 24.1045695,22.0366211 23,22.0366211 C21.8954305,22.0366211 21,22.9320516 21,24.0366211 L9,24.0366211 C9,22.9320516 8.1045695,22.0366211 7,22.0366211 C5.8954305,22.0366211 5,22.9320516 5,24.0366211 L3.8458278,24.0366211 C2.50854969,24.0366211 2.02362033,23.8973827 1.53473144,23.635922 C1.04584256,23.3744614 0.662159695,22.9907785 0.400699056,22.5018896 C0.139238417,22.0130008 1.63769336e-16,21.5280714 0,20.1907933 L0,15 L1.25048828,18.7119141 L4.5168457,18.3356934 L6.43115234,17.1291504 L8.15600586,17.1291504 L9.39672852,18.0681152 L20.4035645,18.3356934 L23,16.2885742 L24.0336914,17.1291504 L25,18.7119141 L28.4652686,18.3356934 L30,15.0454102 Z" id="Combined-Shape-Copy" fill="#C1D1F7"></path>
                        <path d="M30,20.0454102 L30,25.1907933 C30,26.5280714 29.8607616,27.0130008 29.5993009,27.5018896 C29.3378403,27.9907785 28.9541574,28.3744614 28.4652686,28.635922 C27.9763797,28.8973827 27.4914503,29.0366211 26.1541722,29.0366211 L25,29.0366211 C25,27.9320516 24.1045695,27.0366211 23,27.0366211 C21.8954305,27.0366211 21,27.9320516 21,29.0366211 L9,29.0366211 C9,27.9320516 8.1045695,27.0366211 7,27.0366211 C5.8954305,27.0366211 5,27.9320516 5,29.0366211 L3.8458278,29.0366211 C2.50854969,29.0366211 2.02362033,28.8973827 1.53473144,28.635922 C1.04584256,28.3744614 0.662159695,27.9907785 0.400699056,27.5018896 C0.139238417,27.0130008 1.63769336e-16,26.5280714 0,25.1907933 L0,20 L1.25048828,23.7119141 L4.72094727,24.1281738 L6.43115234,22.1291504 L8.15600586,22.1291504 L9.35571289,24.1281738 L20.5634766,24.1281738 L23,22.1291504 L24.0336914,22.1291504 L25,24.1281738 L28.4652686,23.7119141 L30,20.0454102 Z" id="Combined-Shape-Copy-3" fill="#C1D1F7"></path>
                        <path d="M30,15.0452261 L30,20.1697575 C30,21.5016163 29.8607616,21.9845804 29.5993009,22.4714881 C29.3378403,22.9583957 28.9541574,23.3405237 28.4652686,23.6009248 C27.9763797,23.8613258 27.4914503,24 26.1541722,24 L25,24 C25,22.8999068 24.1045695,22.008105 23,22.008105 C21.8954305,22.008105 21,22.8999068 21,24 L9,24 C9,22.8999068 8.1045695,22.008105 7,22.008105 C5.8954305,22.008105 5,22.8999068 5,24 L3.8458278,24 C2.50854969,24 2.02362033,23.8613258 1.53473144,23.6009248 C1.04584256,23.3405237 0.662159695,22.9583957 0.400699056,22.4714881 C0.139238417,21.9845804 1.63769336e-16,21.5016163 0,20.1697575 L0,15" id="Combined-Shape-Copy" stroke="#356AE6" stroke-width="2" stroke-linecap="square" stroke-linejoin="round"></path>
                        <path d="M30,21.0452261 L30,26.1697575 C30,27.5016163 29.8607616,27.9845804 29.5993009,28.4714881 C29.3378403,28.9583957 28.9541574,29.3405237 28.4652686,29.6009248 C27.9763797,29.8613258 27.4914503,30 26.1541722,30 L25,30 C25,28.8999068 24.1045695,28.008105 23,28.008105 C21.8954305,28.008105 21,28.8999068 21,30 L9,30 C9,28.8999068 8.1045695,28.008105 7,28.008105 C5.8954305,28.008105 5,28.8999068 5,30 L3.8458278,30 C2.50854969,30 2.02362033,29.8613258 1.53473144,29.6009248 C1.04584256,29.3405237 0.662159695,28.9583957 0.400699056,28.4714881 C0.139238417,27.9845804 1.63769336e-16,27.5016163 0,26.1697575 L0,21" id="Combined-Shape-Copy-2" stroke="#356AE6" stroke-width="2" stroke-linecap="square" stroke-linejoin="round"></path>
                        <path d="M5,18 L3.8458278,18 C2.50854969,18 2.02362033,17.8607616 1.53473144,17.5993009 C1.04584256,17.3378403 0.662159695,16.9541574 0.400699056,16.4652686 C0.139238417,15.9763797 6.01853049e-17,15.4914503 -1.03584031e-16,14.1541722 L1.03584031e-16,3.8458278 C-6.01853049e-17,2.50854969 0.139238417,2.02362033 0.400699056,1.53473144 C0.662159695,1.04584256 1.04584256,0.662159695 1.53473144,0.400699056 C2.02362033,0.139238417 2.50854969,-7.97900462e-16 3.8458278,-1.04355447e-15 L26.1541722,1.55376046e-16 C27.4914503,-9.02779573e-17 27.9763797,0.139238417 28.4652686,0.400699056 C28.9541574,0.662159695 29.3378403,1.04584256 29.5993009,1.53473144 C29.8607616,2.02362033 30,2.50854969 30,3.8458278 L30,14.1541722 C30,15.4914503 29.8607616,15.9763797 29.5993009,16.4652686 C29.3378403,16.9541574 28.9541574,17.3378403 28.4652686,17.5993009 C27.9763797,17.8607616 27.4914503,18 26.1541722,18 L25,18 C25,16.9535657 24.1045695,16.1052632 23,16.1052632 C21.8954305,16.1052632 21,16.9535657 21,18 L9,18 C9,16.9535657 8.1045695,16.1052632 7,16.1052632 C5.8954305,16.1052632 5,16.9535657 5,18 Z" id="Combined-Shape" stroke="#356AE6" stroke-width="2" stroke-linecap="square" stroke-linejoin="round"></path>
                        <path d="M6,6 L12,6" id="Line-9" stroke="#356AE6" stroke-width="2" stroke-linecap="square" stroke-linejoin="round"></path>
                        <path d="M23,6 L25,6" id="Line-9-Copy-2" stroke="#356AE6" stroke-width="2" stroke-linecap="square" stroke-linejoin="round"></path>
                        <path d="M6,11 L17,11" id="Line-9-Copy" stroke="#356AE6" stroke-width="2" stroke-linecap="square" stroke-linejoin="round"></path>
                    </g>
                </g>
            </g>
        </g>
    </g>
</svg>