<svg xmlns="http://www.w3.org/2000/svg" width="952" height="165" viewBox="0 0 952 165">
  <g fill="none" fill-rule="evenodd" stroke="#CED3E0" stroke-width="2" transform="translate(1 1)">
    <path d="M850,164 L850,6.5 C850,3.18629 847.314,0.5 844,0.5 L96,0.5 C92.6863,0.5 90,3.1863 90,6.5 L90,164"/>
    <path d="M660 163.955L660 68C660 64.6863 657.314 62 654 62L613.5 62C610.186 62 607.5 59.3137 607.5 56L607.5 37C607.5 33.6863 604.814 31 601.5 31L275.5 31C272.186 31 269.5 33.6863 269.5 37L269.5 164M780 164L780 146C780 142.686 777.314 140 774 140L696 140C692.686 140 690 142.686 690 146L690 163.922"/>
    <path d="M489 29L489 89.5073C489 92.8211 491.686 95.5073 495 95.5073L807.5 95.5073C810.814 95.5073 813.5 98.194 813.5 101.507L813.5 164M464 41L464 89.5C464 92.8137 461.314 95.5 458 95.5L305 95.5C301.686 95.5 299 98.186 299 101.5L299 133.644C299 136.957 296.314 139.644 293 139.644L136 139.644C132.686 139.644 130 142.33 130 145.644L130 164"/>
    <path d="M950 164L950 130.5C950 127.186 947.314 124.5 944 124.5L916 124.5C912.686 124.5 910 121.814 910 118.5L910 66C910 62.6863 907.314 60 904 60L727 60C723.686 60 721 62.6863 721 66L721 164M360 164L360 147C360 143.686 362.686 141 366 141L494 141C497.314 141 500 143.686 500 147L500 164"/>
    <path d="M0,164 L0,115.5 C0,112.186 2.68629,109.5 6,109.5 L125.5,109.5 C128.814,109.5 131.5,106.814 131.5,103.5 L131.5,68 C131.5,64.6863 134.186,62 137.5,62 L324,62 C327.314,62 330,64.6863 330,68 L330,112 C330,115.314 332.686,118 336,118 L597,118 C600.314,118 603,120.686 603,124 L603,164"/>
    <path d="M50,164 L50,43 C50,39.6863 52.6863,37 56,37 L174,37 C177.314,37 180,39.6863 180,43 L180,90 C180,93.3137 182.686,96 186,96 L232,96 C235.314,96 238,98.686 238,102 L238,164"/>
  </g>
</svg>
