<svg fill="none" height="16" viewBox="0 0 24 16" width="24" xmlns="http://www.w3.org/2000/svg"><path clip-rule="evenodd" d="m12 0c-5.45357 0-10.09286 3.30596-12 8 1.90714 4.694 6.54643 8 12 8 5.4536 0 10.0929-3.306 12-8-1.9071-4.69404-6.5464-8-12-8zm0 13.3352c-3.00004 0-5.45361-2.4-5.45361-5.33514 0-2.9351 2.45357-5.3351 5.45361-5.3351 3 0 5.4535 2.4 5.4535 5.3351 0 2.93514-2.4535 5.33514-5.4535 5.33514zm-3.27319-5.33526c0-1.75894 1.47319-3.2 3.27319-3.2s3.2732 1.44106 3.2732 3.2c0 1.75895-1.4732 3.19996-3.2732 3.19996s-3.27319-1.44101-3.27319-3.19996z" fill="#f3376b" fill-rule="evenodd"/></svg>
