<svg width="16" height="22" viewBox="0 0 16 22" fill="none" xmlns="http://www.w3.org/2000/svg">
<path fill-rule="evenodd" clip-rule="evenodd" d="M2 8C2 4.68629 4.68629 2 8 2C11.3137 2 14 4.68629 14 8C14 10.392 12.6003 12.459 10.5709 13.4231L10 13.6943V16H6V13.6943L5.42909 13.4231C3.39967 12.459 2 10.392 2 8ZM8 0C3.58172 0 0 3.58172 0 8C0 10.9626 1.61038 13.5473 4 14.9295V16C4 17.1046 4.89543 18 6 18H10C11.1046 18 12 17.1046 12 16V14.9295C14.3896 13.5473 16 10.9626 16 8C16 3.58172 12.4183 0 8 0ZM11 20V19H5V20C5 21.1046 5.89543 22 7 22H9C10.1046 22 11 21.1046 11 20Z" fill="#FF8730"/>
</svg>
